<svg fill="none" height="800" viewBox="0 0 24 24" width="800" xmlns="http://www.w3.org/2000/svg"><path d="m4.78571 5h13.43939c1.3652 0 2.3291 1.33739 1.8974 2.63246l-1.6667 5.00004c-.2722.8166-1.0365 1.3675-1.8973 1.3675h-10.48708m-1.28571-9-.0404-.28284c-.14076-.9853-.9846-1.71716-1.9799-1.71716h-.76541m2.78571 2 1.28571 9m0 0 .18327 1.2828c.14076.9853.9846 1.7172 1.9799 1.7172h8.76541m0 0c-1.1046 0-2 .8954-2 2s.8954 2 2 2 2-.8954 2-2-.8954-2-2-2zm-6 2c0 1.1046-.8954 2-2 2-1.10457 0-2-.8954-2-2s.89543-2 2-2c1.1046 0 2 .8954 2 2z" stroke="#000" stroke-linecap="round" stroke-linejoin="round" stroke-width="1.5"/></svg>