<svg height="800" viewBox="0 0 20 20" width="800" xmlns="http://www.w3.org/2000/svg"><path d="m289.869652 7279.12273c-1.627883.07345-3.038847.47147-4.178166 1.60598-1.143299 1.14047-1.536339 2.55687-1.609972 4.16782-.045772 1.00548-.313437 8.60165.462693 10.59375.52339 1.34394 1.55425 2.37721 2.910487 2.90228.632844.24616 1.355242.41291 2.414958.46155 8.860815.401 12.145437.18263 13.53053-3.36383.245774-.63128.414931-1.35288.461698-2.40997.40498-8.88354-.065673-10.80914-1.609972-12.3516-1.224892-1.22186-2.665708-2.05363-12.382256-1.60598m.081593 17.94475c-.970162-.04368-1.496538-.20547-1.847786-.34145-.883594-.34343-1.547285-1.00448-1.888583-1.88291-.591053-1.51368-.39503-8.70289-.342293-9.86619.051742-1.13948.282591-2.18069 1.086582-2.98467.995038-.99258 2.280627-1.47894 11.033979-1.08389 1.142304.05161 2.186099.28189 2.99208 1.08389.995038.99257 1.488577 2.28788 1.086582 11.00765-.043782.96776-.205973 1.49283-.342293 1.84321-.90051 2.30773-2.97218 2.62833-11.778268 2.22436m8.138418-13.37792c0 .65709.534335 1.19109 1.194046 1.19109.65971 0 1.195041-.534 1.195041-1.19109 0-.65708-.535331-1.19109-1.195041-1.19109-.659711 0-1.194046.53401-1.194046 1.19109m-9.22699 5.29836c0 2.81494 2.287593 5.09687 5.109521 5.09687 2.821929 0 5.109522-2.28193 5.109522-5.09687s-2.287593-5.09587-5.109522-5.09587c-2.821928 0-5.109521 2.28093-5.109521 5.09587m1.793059 0c0-1.82633 1.484597-3.30825 3.316462-3.30825 1.831866 0 3.316463 1.48192 3.316463 3.30825 0 1.82733-1.484597 3.30924-3.316463 3.30924-1.831865 0-3.316462-1.48191-3.316462-3.30924" fill-rule="evenodd" transform="translate(-284 -7279)"/></svg>